<?xml version="1.0" standalone="no"?>
<!DOCTYPE svg PUBLIC "-//W3C//DTD SVG 1.1//EN" "http://www.w3.org/Graphics/SVG/1.1/DTD/svg11.dtd" >
<svg xmlns="http://www.w3.org/2000/svg" xmlns:xlink="http://www.w3.org/1999/xlink" version="1.1">
<metadata></metadata>
<defs>
<font id="pizzadude_starsregular" horiz-adv-x="122" >
<font-face units-per-em="2048" ascent="1638" descent="-410" />
<missing-glyph horiz-adv-x="1024" />
<glyph horiz-adv-x="0" />
<glyph horiz-adv-x="682" />
<glyph unicode=" "  horiz-adv-x="1024" />
<glyph unicode="&#x09;" horiz-adv-x="1024" />
<glyph unicode="&#xa0;" horiz-adv-x="1024" />
<glyph unicode="!" />
<glyph unicode="&#x22;" />
<glyph unicode="#" />
<glyph unicode="$" />
<glyph unicode="%" />
<glyph unicode="&#x26;" />
<glyph unicode="'" />
<glyph unicode="(" />
<glyph unicode=")" />
<glyph unicode="*" />
<glyph unicode="+" />
<glyph unicode="," />
<glyph unicode="-" />
<glyph unicode="." />
<glyph unicode="/" />
<glyph unicode="0" />
<glyph unicode="1" />
<glyph unicode="2" />
<glyph unicode="3" />
<glyph unicode="4" />
<glyph unicode="5" />
<glyph unicode="6" />
<glyph unicode="7" />
<glyph unicode="8" />
<glyph unicode="9" />
<glyph unicode=":" />
<glyph unicode=";" />
<glyph unicode="&#x3c;" />
<glyph unicode="=" />
<glyph unicode="&#x3e;" />
<glyph unicode="?" />
<glyph unicode="@" />
<glyph unicode="A" horiz-adv-x="1454" d="M27 1032l575 -20l160 553l160 -553l575 20l-477 -323l197 -541l-455 354l-455 -354l197 541z" />
<glyph unicode="B" horiz-adv-x="1503" d="M-2 989l31 94l536 -20l148 516h98l147 -516l537 20l31 -94l-445 -301l183 -504l-80 -57l-422 330l-422 -330l-80 57l182 504z" />
<glyph unicode="C" horiz-adv-x="1767" d="M330 504l422 393l-279 504l504 -279l393 422l-110 -567l522 -242l-572 -71l-71 -572l-242 522z" />
<glyph unicode="D" horiz-adv-x="1685" d="M231 1073l576 -20l160 553l159 -553l576 20l-477 -323l196 -541l-454 354l-455 -354l197 541zM672 973l192 -129l-80 -215l183 141l182 -141l-80 215l193 129l-232 -8l-63 223l-64 -223z" />
<glyph unicode="E" horiz-adv-x="1699" d="M246 1020l465 137l272 397l272 -397l465 -137l-295 -383l13 -483l-455 161l-455 -161l13 483z" />
<glyph unicode="F" horiz-adv-x="1652" d="M2 680l51 -39l15 -59l51 36l63 -4l-18 60l22 59h-63l-49 39l-19 -59zM141 971l31 -27l6 -43l37 23l41 -6l-10 40l18 37l-41 4l-28 29l-17 -39zM145 1427l54 -51l8 -76l67 35l74 -14l-12 74l37 65l-74 10l-51 56l-33 -68zM317 469l27 -18l8 -31l25 20l33 -2l-11 31l11 29 h-31l-25 20l-10 -31zM322 225l30 -28l6 -43l37 20l43 -6l-8 41l19 39l-41 4l-31 31l-17 -39zM375 1100l61 -68l6 -92l84 39l88 -25l-10 93l51 77l-92 19l-57 71l-45 -79zM426 662l270 -199l82 -324l273 195l335 -21l-102 320l123 311l-334 2l-258 213l-106 -317zM604 98 l31 -12l16 -29l21 27l33 6l-19 29l4 33l-33 -9l-28 13l-2 -33zM752 1415l16 -16l2 -25l21 10l22 -6l-2 25l12 18l-22 4l-17 19l-10 -21zM834 1270l18 -15l4 -22l18 12l23 -4l-4 23l8 20l-22 2l-15 14l-10 -20zM944 86l14 -8l9 -15l12 13l16 2l-8 14l2 17l-16 -3l-15 9 l-2 -17zM1016 1108h63l49 -41l21 61l53 33l-51 39l-16 62l-52 -37l-63 4l18 -62zM1075 1331l23 -10l10 -25l18 19l27 2l-12 24l6 25l-27 -4l-22 14l-4 -26zM1087 123l29 -23l6 -32l31 18l35 -4l-8 35l14 30l-37 3l-24 24l-15 -33zM1325 1284l12 -16v-23l21 8l20 -8v23l13 16 l-21 6l-12 19l-12 -19zM1335 1114l8 -14l-2 -15l15 5l14 -7v15l10 12l-12 4l-8 14l-10 -12zM1339 141l19 -20l2 -27l24 10l27 -6l-4 27l16 22l-26 7l-19 20l-12 -22zM1417 1083l31 -26l6 -43l37 22l41 -6l-10 41l18 37l-41 4l-29 29l-16 -39zM1444 338l12 -8l2 -15l10 9 l15 -2l-4 12l6 12l-15 2l-8 8l-6 -12zM1466 760l33 -58l-12 -63l63 12l58 -33l8 66l49 45l-59 29l-29 59l-45 -49zM1493 373l41 -60l-6 -69l67 20l66 -28l2 71l47 53l-68 25l-36 61l-43 -57zM1679 856l31 2l27 -20l8 30l27 19l-27 18l-8 31l-27 -21l-31 3l11 -31z" />
<glyph unicode="G" horiz-adv-x="1978" d="M18 918l334 -140l-22 -360l235 274l338 -133l-190 309l231 281l-352 -84l-195 305l-28 -362zM834 705l157 -41l13 -162l88 137l157 -37l-102 125l84 139l-152 -59l-104 123l10 -162zM897 1030h152l47 -143l47 143h151l-120 90l45 146l-123 -88l-123 88l45 -146zM1229 690 l88 10l37 -82l20 89l88 8l-78 47l19 86l-66 -60l-77 46l34 -82zM1290 936l64 -10l10 -64l31 58l63 -11l-45 47l29 58l-58 -29l-47 45l11 -63zM1296 1159l35 -45l-31 -47l54 18l37 -43l-2 58l53 20l-56 15l-4 57l-30 -47zM1485 670l57 14l31 -49l4 57l55 17l-53 20l2 59 l-37 -45l-55 21l33 -49zM1491 1229l29 -19l-11 -32l27 20l29 -18l-11 32l25 21l-33 -2l-12 33l-8 -33zM1501 1106l33 -37l-25 -43l45 18l33 -36l-4 49l45 20l-47 13l-4 49l-27 -43zM1546 866l33 -20l-6 -39l29 27l34 -21l-16 37l31 27l-41 -5l-17 37l-8 -39zM1659 1004 l31 -19l-9 -35l27 23l29 -19l-13 33l27 23l-35 -2l-14 30l-8 -32zM1683 768l21 -18l-12 -27l24 14l21 -20l-4 28l24 13l-28 4l-5 29l-14 -25zM1688 1139l30 -9l2 -32l19 26l30 -8l-20 25l18 26l-30 -10l-19 25v-31zM1757 848l27 -4l4 -27l12 25l27 -4l-19 18l13 25l-25 -13 l-18 19l4 -27zM1808 1028l21 -10l-2 -23l14 17l21 -8l-11 18l15 16l-23 -4l-10 21l-2 -23zM1915 795l18 -4v-17l11 14l16 -4l-10 13l8 16l-16 -8l-13 14l2 -18zM1925 930l19 -4l4 -19l8 17l20 -2l-14 14l8 16l-16 -8l-15 14l3 -20zM1950 1065l18 -8l-2 -19l12 15l19 -6 l-10 16l12 14l-19 -4l-10 14l-2 -18z" />
<glyph unicode="H" horiz-adv-x="1396" d="M111 256v1124h1183v-1124h-1183zM162 952l330 -241l-123 -389l331 235l332 -235l-123 389l330 241l-410 4l-129 387l-129 -387z" />
<glyph unicode="I" horiz-adv-x="1472" d="M37 813q0 287 197.5 484.5t484.5 197.5t484.5 -197.5t197.5 -484.5t-197.5 -484.5t-484.5 -197.5t-484.5 197.5t-197.5 484.5zM147 987l342 -262l-137 -410l357 244l346 -256l-121 414l350 252l-432 10l-129 412l-143 -408z" />
<glyph unicode="J" horiz-adv-x="1429" d="M53 1440l1280 -41l-8 -1196l-1196 -43zM162 952l330 -241l-123 -389l331 235l332 -235l-123 389l330 241l-410 4l-129 387l-129 -387z" />
<glyph unicode="K" horiz-adv-x="1452" d="M47 836l473 147l-125 481l367 -336l352 349l-108 -484l479 -133l-473 -147l125 -482l-367 336l-352 -348l108 483z" />
<glyph unicode="L" horiz-adv-x="1521" d="M43 1034l526 2l-90 518l332 -409l350 393l-114 -514l524 -29l-471 -231l303 -428l-475 225l-146 -506l-118 512l-486 -200l326 411z" />
<glyph unicode="M" horiz-adv-x="1540" d="M57 1104l533 -82l-92 530l319 -436l309 443l-82 -533l531 92l-436 -319l442 -310l-532 82l92 -530l-320 436l-309 -442l82 532l-531 -92l437 320z" />
<glyph unicode="N" horiz-adv-x="1447" d="M45 647l457 193l-375 323l473 -145l-78 489l269 -415l256 424l-62 -492l467 162l-362 -336l462 -176l-495 -27l241 -432l-395 299l-92 -485l-111 481l-385 -311l226 440z" />
<glyph unicode="O" horiz-adv-x="1492" d="M27 600l448 227l-432 258l496 -79l-197 462l354 -356l111 490l78 -498l379 332l-230 -447l500 45l-449 -227l433 -258l-496 80l197 -463l-355 356l-110 -489l-78 497l-379 -331l229 446z" />
<glyph unicode="P" horiz-adv-x="1517" d="M59 897l504 18l-319 390l432 -258l-60 499l226 -448l221 450l-53 -499l430 260l-316 -391l502 -13l-477 -160l416 -282l-488 125l197 -463l-342 369l-84 -496l-90 494l-338 -371l192 465l-487 -129l414 286z" />
<glyph unicode="Q" horiz-adv-x="1511" d="M45 825l490 80l-383 314l462 -177l-176 463l314 -383l79 490l80 -490l314 383l-176 -463l462 177l-383 -314l490 -80l-490 -80l383 -313l-462 176l176 -463l-314 383l-80 -489l-79 489l-314 -383l176 463l-462 -176l383 313z" />
<glyph unicode="R" horiz-adv-x="1574" d="M41 737l489 129l-438 254l494 -112l-271 428l383 -330l-41 504l189 -471l198 467l-53 -504l391 319l-280 -420l497 101l-444 -242l485 -141l-505 -8l364 -351l-452 228l161 -482l-295 414l-82 -500l-69 500l-303 -403l172 475l-459 -217l375 342z" />
<glyph unicode="S" horiz-adv-x="1550" d="M20 987l478 -37l-330 346l414 -241l-150 454l268 -397l64 475l70 -475l264 401l-146 -458l412 248l-328 -351l477 43l-446 -172l449 -168l-478 37l330 -346l-414 242l150 -455l-268 397l-64 -475l-70 475l-264 -401l146 459l-412 -248l328 350l-477 -43l446 172z" />
<glyph unicode="T" horiz-adv-x="1636" d="M6 928l504 4l-395 313l463 -201l-234 449l342 -373l-31 504l160 -479l176 473l-49 -502l354 361l-249 -441l471 187l-408 -301l506 -23l-494 -108l453 -226l-496 103l322 -389l-412 292l135 -487l-256 436l-73 -500l-58 502l-270 -426l151 482l-419 -279l333 377 l-497 -84l461 211z" />
<glyph unicode="U" horiz-adv-x="1509" d="M37 774l469 78l-424 217l463 -106l-307 360l387 -276l-148 454l252 -405l39 475l78 -469l217 424l-107 -463l361 307l-277 -387l455 147l-405 -251l475 -39l-469 -78l424 -217l-463 106l307 -360l-387 276l147 -454l-252 405l-38 -475l-78 469l-217 -424l106 463 l-360 -307l276 387l-455 -148l406 252z" />
<glyph unicode="V" horiz-adv-x="1470" d="M18 911l459 -2l-377 262l426 -170l-256 381l338 -311l-102 447l201 -412l67 455l39 -459l227 399l-129 -440l355 291l-279 -365l436 143l-393 -239l459 -25l-451 -80l418 -188l-450 86l321 -326l-387 244l180 -420l-272 367l16 -457l-121 440l-149 -432l45 455l-295 -350 l207 409l-401 -219l339 305l-454 -59l430 162z" />
<glyph unicode="W" horiz-adv-x="1474" d="M18 932l453 -23l-369 262l416 -176l-258 373l332 -307l-115 436l209 -401l41 450l57 -448l193 409l-100 -442l321 319l-244 -380l410 188l-358 -272l448 36l-430 -135l436 -119l-452 23l368 -262l-415 176l258 -373l-332 307l114 -436l-208 402l-41 -451l-58 449 l-192 -410l100 442l-321 -319l243 381l-409 -189l358 273l-448 -37l430 135z" />
<glyph unicode="X" horiz-adv-x="1501" d="M55 905l469 -22l-391 260l436 -174l-286 372l356 -305l-150 445l238 -404l4 469l94 -461l156 443l-61 -465l290 369l-209 -420l396 254l-334 -330l457 111l-424 -203l469 -43l-467 -56l428 -190l-459 98l344 -319l-403 241l221 -413l-301 360l73 -465l-167 439l-80 -463 l-17 469l-227 -410l137 449l-348 -316l274 381l-430 -186l383 270l-469 -35l453 131z" />
<glyph unicode="Y" horiz-adv-x="1546" d="M18 782l480 64l-449 178l475 -86l-372 309l426 -229l-259 407l334 -350l-121 469l211 -436l31 483l64 -479l178 449l-86 -476l309 373l-229 -426l407 258l-350 -334l469 121l-436 -211l483 -30l-479 -64l448 -178l-475 86l373 -309l-426 229l258 -407l-334 350l121 -469 l-211 436l-31 -483l-63 479l-178 -449l86 475l-310 -372l230 426l-408 -258l351 334l-469 -121l436 211z" />
<glyph unicode="Z" horiz-adv-x="1499" d="M25 815l460 35l-422 184l449 -102l-348 303l399 -231l-246 391l314 -338l-119 444l201 -416l18 461l68 -454l153 434l-67 -457l274 371l-201 -416l371 274l-313 -337l436 151l-399 -231l460 16l-450 -102l446 -121l-460 35l391 -246l-430 170l299 -350l-361 286l185 -424 l-261 383l52 -458l-136 440l-88 -453l2 461l-217 -407l136 440l-326 -326l260 381l-410 -215l363 289l-455 -86l430 170z" />
<glyph unicode="[" />
<glyph unicode="\" />
<glyph unicode="]" />
<glyph unicode="^" />
<glyph unicode="_" />
<glyph unicode="`" />
<glyph unicode="a" horiz-adv-x="1581" d="M211 948l516 78l215 475l234 -467l518 -59l-371 -367l102 -510l-462 240l-455 -256l86 514zM526 874l76 -71l-16 -103l90 52l94 -47l-22 102l75 72l-104 12l-47 94l-43 -96zM623 506l75 -72l-16 -102l90 51l94 -47l-22 102l76 72l-105 12l-47 94l-43 -96zM813 1106 l78 -70l-17 -104l91 51l92 -47l-21 102l74 74l-102 10l-47 95l-43 -95zM1004 510l77 -70l-18 -104l92 53l92 -49l-20 102l73 74l-102 10l-47 95l-43 -95zM1069 862l78 -69l-19 -105l93 53l92 -49l-21 103l74 73l-102 11l-47 94l-43 -94z" />
<glyph unicode="b" horiz-adv-x="1579" d="M111 1112l118 74v141l109 -90l133 43l-51 -131l22 -31l303 -45l230 258l-4 23l-90 45l92 43l16 100l68 -74l100 17l-49 -90l47 -90l-100 20l-8 -8l57 -346l252 -111l82 17l53 124l63 -118l138 -13l-95 -98l33 -133l-125 59l-116 -71l16 121l-287 -150l-33 -322l25 -30 l115 12l-64 -98l47 -107l-112 31l-88 -76l-7 115l-100 59l111 41v6l-244 242l-332 -74l-4 -10l68 -98l-119 8l-72 -94l-28 116l-113 39l102 62l2 121l90 -78l29 8l148 293l-166 278l-11 2l-83 -112l-35 135z" />
<glyph unicode="c" horiz-adv-x="675" d="M53 1364l236 27l104 213l99 -215l233 -37l-174 -160l39 -231l-205 114l-211 -108l47 231zM166 811l141 23l60 129l63 -127l143 -17l-102 -100l29 -139l-127 65l-125 -70l24 140zM250 492l92 8l45 80l35 -84l90 -19l-70 -59l13 -90l-80 47l-82 -39l20 88zM317 246h50 l24 41l17 -45l47 -13l-39 -28l2 -49l-39 28l-45 -18l14 47zM338 25l20 32l-18 37l39 -8l29 27l4 -39l34 -19l-36 -16l-7 -39l-26 31z" />
<glyph unicode="d" horiz-adv-x="1665" d="M281 637l168 270l18 318l317 37l260 184l226 -223l307 -88l-35 -318l121 -295l-268 -170l-154 -280l-303 104l-313 -53l-107 301zM557 686l143 -127l64 -180l188 31l181 -62l92 166l161 102l-71 179l20 190l-184 51l-135 135l-158 -110l-188 -23l-13 -190zM764 723l51 82 l6 94l94 12l78 56l68 -68l92 -27l-10 -96l37 -88l-80 -51l-47 -84l-90 33l-95 -17l-32 90z" />
<glyph unicode="e" horiz-adv-x="1781" d="M-186 989l26 -37l6 -45h45l39 -24l29 35l41 16l-6 45l12 43l-39 20l-24 37l-41 -18l-45 4l-13 -43zM2 1210l27 -34l6 -46h43l39 -22l28 33l41 16l-8 43l12 41l-38 21l-25 36l-39 -18l-45 4l-10 -43zM4 522l23 -20l8 -29l31 4l26 -8l17 25l24 16l-12 27l4 30l-29 8l-20 21 l-25 -16l-31 -2v-31zM47 305l12 -45l-10 -45l41 -18l29 -37l41 20h47l8 45l29 35l-29 37l-10 45l-45 -2l-43 20l-27 -36zM82 1583l35 -37l12 -45l47 4l45 -20l27 41l43 22l-15 47l9 47l-45 17l-33 37l-41 -25l-49 -2l-6 -47zM88 799l246 -207l117 -299l315 63l305 -96 l148 285l266 180l-131 293l24 321l-311 80l-236 219l-256 -194l-317 -47l-8 -320zM365 1720l16 -22l6 -29h29l24 -14l19 22l26 13l-6 26l8 29l-26 12l-17 23l-26 -13l-29 2l-6 -28zM473 1546l16 -20l5 -25h24l21 -10l16 18l23 11l-7 24l7 23l-21 10l-14 20l-23 -10h-24 l-7 -22zM504 41l55 -41l31 -59l65 18l68 -16l27 61l55 43l-33 62v67l-67 12l-56 43l-51 -45l-68 -14l5 -70zM1051 1655l36 -19l25 -34l41 16l43 -2l10 41l29 33l-27 34l-6 43h-43l-37 21l-28 -33l-41 -16l10 -41zM1204 53l29 -20l12 -33l35 8l33 -8l14 31l29 20l-17 31l2 35 l-34 8l-27 22l-27 -22l-32 -6v-35zM1362 381l39 -39l18 -53l54 8l53 -21l28 48l48 28l-21 51l8 56l-51 16l-39 41l-47 -31l-53 -4l-6 -55zM1366 1538l23 -53l-7 -58l56 -16l41 -41l47 35l57 6l2 57l31 50l-43 38l-19 54l-57 -8l-55 18l-27 -51zM1454 965l21 -58l-11 -59 l58 -19l41 -45l49 33l59 4l6 60l35 49l-43 43l-16 55l-60 -6l-55 22l-33 -51zM1513 1104l46 -23l28 -41l47 21l49 -2l13 49l33 37l-31 41l-10 49h-50l-45 25l-30 -39l-47 -21l12 -49zM1538 530l51 -26l33 -49l53 24l58 -6l16 57l39 41l-35 47l-8 58l-57 2l-50 29l-39 -43 l-53 -21l10 -57z" />
<glyph unicode="f" horiz-adv-x="1533" d="M195 543l593 198l-452 433l524 -340l55 622l62 -622l522 346l-448 -437l594 -192l-621 80l221 -586l-325 535l-320 -539l215 588z" />
<glyph unicode="g" horiz-adv-x="1503" d="M39 1044l688 -133l86 697l86 -697l688 133l-635 -296l340 -615l-479 512l-479 -512l340 615z" />
<glyph unicode="h" horiz-adv-x="1648" d="M133 772l246 -33l-17 246l46 -244l229 93l-219 -117l160 -191l-181 170l-131 -209l107 224zM272 1223l654 -359l221 711l-139 -731l745 8l-739 -94l239 -705l-319 674l-596 -446l543 512zM573 246l170 71l-106 152l123 -137l110 145l-94 -158l174 -61l-180 41l-4 -184 l-16 184zM590 1419l192 -102l62 209l-37 -213l215 6l-213 -31l72 -205l-95 195l-172 -133l156 151zM1174 1184l237 20l-70 228l95 -218l194 136l-178 -158l188 -143l-202 120l-78 -223l51 232zM1294 600l176 -70l33 187l-12 -189l188 25l-184 -47l82 -170l-100 160 l-138 -131l121 145z" />
<glyph unicode="i" horiz-adv-x="1574" d="M115 750l137 90l-137 88l153 55l-110 121l164 12l-80 146l164 -29l-41 160l149 -68l2 166l129 -102l41 157l98 -131l82 144l64 -152l112 121l23 -164l139 88l-16 -164l155 49l-57 -153l164 10l-92 -135l160 -33l-125 -106l149 -72l-147 -72l127 -106l-162 -33l96 -133 l-164 6l60 -154l-158 50l20 -164l-141 86l-22 -164l-115 117l-62 -152l-81 141l-97 -131l-45 158l-127 -104l-2 165l-149 -69l37 160l-162 -31l78 145l-164 12l108 121zM328 903l96 -61l-94 -64l108 -37l-78 -86l115 -8l-53 -100l113 20l-25 -112l104 49l2 -115l89 72 l30 -111l68 92l57 -98l43 107l82 -82l14 112l99 -59l-15 115l111 -33l-41 106l115 -4l-68 92l113 25l-88 74l102 51l-102 49l86 76l-113 20l66 97l-115 -9l41 109l-111 -35l13 115l-97 -62l-18 115l-78 -84l-45 107l-55 -101l-70 90l-29 -110l-90 71l-2 -114l-104 47 l28 -113l-114 21l55 -103l-115 -8l78 -86zM543 807l55 35l-55 37l61 20l-45 49l66 4l-31 60l65 -13l-16 64l59 -27v66l52 -41l18 63l39 -51l33 57l24 -61l45 49l11 -65l55 34l-6 -65l61 20l-22 -61l65 2l-37 -53l64 -12l-49 -44l59 -28l-59 -29l51 -43l-66 -12l39 -53l-65 2 l22 -62l-61 19l8 -66l-57 35l-8 -66l-48 47l-22 -61l-35 57l-39 -53l-16 64l-51 -41l-2 65l-60 -26l17 63l-66 -12l31 57l-66 6l43 47z" />
<glyph unicode="j" horiz-adv-x="1624" d="M209 795q0 16 113 82q-102 76 -103 92q0 18 129 55q-78 94 -78 113q0 20 142 22q-49 104 -50 123q0 16 23 16q20 0 121 -22q-18 96 -19 117q0 33 29 24q18 -4 109 -51q10 139 28 139q16 0 111 -84q41 129 59 129q16 0 88 -108q69 110 86 110q18 0 62 -127q92 84 108 84 q20 0 31 -139q90 49 111 55q29 8 28 -26q0 -18 -16 -115q100 27 121 27q23 0 22 -19q0 -18 -47 -123h109q33 0 33 -20q0 -18 -76 -113q131 -35 131 -53q0 -16 -103 -94q115 -63 115 -80q0 -16 -123 -70q92 -86 92 -102q0 -18 -135 -39q63 -102 64 -119q0 -16 -37 -16 q-20 0 -107 8q33 -104 33 -123q0 -18 -18 -18t-123 37q6 -76 6 -95q0 -47 -18 -47q-16 0 -117 70q-27 -135 -45 -135q-17 0 -101 96q-55 -121 -71 -121q-18 0 -76 119q-82 -98 -98 -98q-18 0 -47 133q-98 -70 -117 -70q-18 0 -19 55q0 16 2 86q-104 -41 -120 -41 q-18 0 -19 21q0 18 31 121q-90 -10 -111 -10q-33 0 -33 16q0 18 62 119q-137 18 -137 37q0 16 90 104q-125 51 -125 68zM315 801q106 -41 107 -58q0 -14 -78 -90l92 -12q27 -8 27 -23q0 -14 -51 -102q80 10 92 10q31 0 31 -22q0 -12 -27 -103q90 35 104 35q23 0 23 -45 q0 -8 -2 -78q84 61 98 62q16 0 43 -117q70 86 84 86t66 -102l20 53q25 49 47 49q13 0 23 -12l59 -70q23 117 41 117q14 0 100 -60q-4 74 -4 84q0 39 21 39q14 0 104 -32q-28 87 -28 103q0 21 32 22q12 0 93 -7q-55 86 -56 101q0 14 27 22q12 2 92 15q-80 74 -80 88 q0 16 107 61q-100 53 -101 70q0 14 88 80q-112 31 -112 47q0 14 65 96l-92 2q-31 0 -31 27q0 29 39 98q-88 -23 -102 -23q-23 0 -23 29q0 12 15 98q-88 -49 -103 -49q-16 0 -22 27q-2 8 -8 92q-80 -72 -93 -72q-16 0 -55 109q-59 -94 -76 -94q-14 0 -75 92 q-37 -111 -54 -111q-14 0 -92 72q-6 -82 -8 -92q-6 -29 -23 -29q-12 0 -102 47q16 -86 16 -100q0 -25 -24 -25q-12 0 -100 21q40 -88 40 -104q0 -17 -26 -21q-14 -2 -94 -4q67 -81 67 -97t-112 -49q88 -66 88 -80t-97 -71z" />
<glyph unicode="k" horiz-adv-x="1548" d="M244 797l135 77l-125 91l149 43l-100 118l156 4l-66 140l152 -35l-29 151l137 -69l11 153l114 -102l47 145l86 -127l84 130l52 -146l112 107l15 -156l135 76l-27 -154l152 39l-64 -141l156 -2l-96 -121l149 -39l-123 -94l135 -74l-143 -61l113 -107l-152 -22l82 -132 l-154 17l47 -148l-145 54l10 -154l-127 88l-30 -151l-101 116l-67 -139l-68 137l-100 -119l-31 152l-127 -90l6 154l-143 -56l45 148l-154 -19l80 131l-153 21l110 108z" />
<glyph unicode="l" horiz-adv-x="1624" d="M209 795q0 16 113 82q-102 76 -103 92q0 18 129 55q-78 94 -78 113q0 20 142 22q-49 104 -50 123q0 16 23 16q20 0 121 -22q-18 96 -19 117q0 33 29 24q18 -4 109 -51q10 139 28 139q16 0 111 -84q41 129 59 129q16 0 88 -108q69 110 86 110q18 0 62 -127q92 84 108 84 q20 0 31 -139q90 49 111 55q29 8 28 -26q0 -18 -16 -115q100 27 121 27q23 0 22 -19q0 -18 -47 -123h109q33 0 33 -20q0 -18 -76 -113q131 -35 131 -53q0 -16 -103 -94q115 -63 115 -80q0 -16 -123 -70q92 -86 92 -102q0 -18 -135 -39q63 -102 64 -119q0 -16 -37 -16 q-20 0 -107 8q33 -104 33 -123q0 -18 -18 -18t-123 37q6 -76 6 -95q0 -47 -18 -47q-16 0 -117 70q-27 -135 -45 -135q-17 0 -101 96q-55 -121 -71 -121q-18 0 -76 119q-82 -98 -98 -98q-18 0 -47 133q-98 -70 -117 -70q-18 0 -19 55q0 16 2 86q-104 -41 -120 -41 q-18 0 -19 21q0 18 31 121q-90 -10 -111 -10q-33 0 -33 16q0 18 62 119q-137 18 -137 37q0 16 90 104q-125 51 -125 68zM315 801q106 -41 107 -58q0 -14 -78 -90l92 -12q27 -8 27 -23q0 -14 -51 -102q80 10 92 10q31 0 31 -22q0 -12 -27 -103q90 35 104 35q23 0 23 -45 q0 -8 -2 -78q84 61 98 62q16 0 43 -117q70 86 84 86t66 -102l20 53q25 49 47 49q13 0 23 -12l59 -70q23 117 41 117q14 0 100 -60q-4 74 -4 84q0 39 21 39q14 0 104 -32q-28 87 -28 103q0 21 32 22q12 0 93 -7q-55 86 -56 101q0 14 27 22q12 2 92 15q-80 74 -80 88 q0 16 107 61q-100 53 -101 70q0 14 88 80q-112 31 -112 47q0 14 65 96l-92 2q-31 0 -31 27q0 29 39 98q-88 -23 -102 -23q-23 0 -23 29q0 12 15 98q-88 -49 -103 -49q-16 0 -22 27q-2 8 -8 92q-80 -72 -93 -72q-16 0 -55 109q-59 -94 -76 -94q-14 0 -75 92 q-37 -111 -54 -111q-14 0 -92 72q-6 -82 -8 -92q-6 -29 -23 -29q-12 0 -102 47q16 -86 16 -100q0 -25 -24 -25q-12 0 -100 21q40 -88 40 -104q0 -17 -26 -21q-14 -2 -94 -4q67 -81 67 -97t-112 -49q88 -66 88 -80t-97 -71zM561 864q-61 45 -61 56q0 10 78 32q-47 57 -48 68 q0 12 84 14q-28 59 -28 71v1q0 10 14 10q10 0 72 -12q-12 57 -13 70q0 18 19 14q10 -4 65 -31q4 84 17 84q10 0 65 -51q27 78 37 78t53 -66q41 66 52 66q10 0 37 -76q55 51 65 51t18 -84q53 31 66 33q16 6 16 -14q0 -12 -8 -70q59 16 72 16q12 0 12 -10q0 -12 -26 -74h63 q20 0 21 -12q0 -12 -46 -70q80 -20 80 -30t-61 -58q67 -36 67 -47v0q0 -10 -73 -41q55 -53 55 -61q0 -12 -82 -25q39 -61 39 -71t-22 -11q-12 0 -64 7q20 -63 21 -74q0 -12 -11 -12q-12 0 -73 22q2 -45 2 -55q0 -29 -11 -29q-10 0 -71 41q-14 -82 -27 -82q-8 1 -59 60 q-33 -72 -43 -72t-47 69q-49 -59 -58 -59q-12 0 -28 82q-59 -43 -70 -43q-10 0 -10 62v22q-61 -25 -74 -25q-10 0 -10 13q0 12 18 73q-53 -6 -65 -6q-20 0 -21 10q0 10 37 72q-82 10 -82 21q0 10 53 63q-73 31 -73 41q0 8 67 49zM557 819q63 -27 64 -37q0 -8 -46 -53 q70 -8 70 -20q0 -8 -31 -62q49 6 58 6q16 0 16 -12q0 -8 -14 -63q51 22 60 22h1q13 0 13 -64v-10q51 37 59 37q10 0 24 -69q43 49 52 49q8 0 39 -60q31 61 41 62q8 0 14 -8l35 -41q14 69 24 69q8 0 60 -37l-2 52q0 25 12 24q10 0 63 -20q-16 53 -18 61q0 14 20 14q8 0 56 -6 q-33 53 -33 62q0 10 70 22q-47 43 -47 54q0 8 63 34q-59 33 -59 43q0 8 53 50q-68 16 -68 26q0 8 39 60h-55q-18 0 -19 16q0 6 25 59q-53 -14 -61 -14q-14 0 -15 16q0 8 8 60q-53 -29 -61 -29q-12 0 -18 72q-47 -45 -56 -45q-10 0 -32 65q-37 -55 -46 -55q-8 0 -47 55 q-20 -65 -30 -65q-8 0 -56 43q-6 -74 -18 -74q-8 0 -62 29q10 -51 11 -60q0 -16 -15 -16q-8 0 -61 12q25 -53 25 -61q0 -14 -74 -17q41 -49 41 -57q0 -10 -68 -29q53 -39 53 -47q0 -10 -57 -43zM707 829q4 6 34 25q-33 23 -32 27q0 6 41 16q-25 29 -25 35t43 6 q-12 27 -12 37q0 6 4 6q6 0 35 -8q-2 10 -4 26q2 8 6 17q8 -2 34 -17q2 43 9 43q6 0 32 -24q12 37 19 37q8 -4 27 -31q20 33 26 33q6 -6 19 -39q27 27 30 26q6 0 11 -43l14 9q23 12 26 6q2 -4 -4 -39q31 6 37 6t6 -4q0 -6 -14 -37h33q10 0 10 -6t-22 -35q37 -10 38 -14 q0 -6 -30 -29q33 -20 35 -24q0 -6 -37 -21q25 -25 26 -31q0 -6 -41 -12q20 -29 21 -35q0 -8 -43 -4q10 -31 10 -37q0 -4 -6 -4t-37 10q2 -41 -4 -43q-6 0 -35 23q-8 -41 -14 -41q-4 0 -29 29q-18 -35 -22 -37q-6 0 -23 37q-25 -31 -31 -31q-4 0 -12 41q-29 -20 -35 -23 q-8 0 -6 43q-31 -12 -37 -12q-4 0 -4 6t8 37q-33 -4 -39 -2q-2 0 -2 4t3.5 10.5t13.5 24.5q-41 6 -41 12q4 8 26 31q-37 14 -36 20zM739 831q31 -12 31 -18q0 -4 -22 -27q35 -4 34 -10q0 -4 -14 -31q37 4 37 -4q0 -4 -8 -30q27 10 30 10q8 0 7 -37q25 18 28 18q6 0 15 -34 q20 27 24 26q6 -4 21 -30q10 31 20 30q4 0 6 -4l19 -20q6 35 12 35q8 -2 29 -19q-2 37 6 37q4 0 30 -10q-4 12 -8 32q0 8 37 5q-16 25 -16 28q0 6 35 13q-23 23 -23 26q4 6 31 19q-29 16 -29 20q4 6 27 25q-35 8 -35 14q2 8 20 29h-28q-8 0 -8 8q0 10 10 29l-19 -5 q-8 -2 -12 -2t-4 13q0 8 2 24q-25 -14 -31 -14t-8 37q-23 -20 -29 -23q-4 0 -16 33q-18 -27 -22 -29q-4 0 -23 29q-12 -31 -16 -33q-4 0 -29 21q-2 -35 -8 -35q-4 0 -31 12q6 -29 4 -33q-2 -6 -22 -2q-4 2 -15 4q12 -25 13 -30q0 -6 -37 -8q20 -23 20 -29q0 -4 -33 -14 q25 -20 27 -25q0 -4 -29 -21z" />
<glyph unicode="m" horiz-adv-x="1484" d="M72 860l299 25l-299 18l299 6l-297 37l299 -14l-295 57l299 -33l-291 74l295 -51l-285 92l291 -67l-278 108l286 -86l-270 127l281 -106l-265 145l275 -123l-254 160l266 -139l-244 176l256 -156l-231 190l246 -172l-217 205l233 -186l-205 217l221 -201l-190 232 l209 -215l-176 241l194 -227l-162 254l183 -240l-146 262l166 -249l-129 270l150 -260l-111 278l133 -268l-94 285l117 -277l-76 291l98 -283l-57 293l80 -288l-37 299l61 -295l-20 299l43 -295v299l25 -299l18 299l6 -299l37 297l-14 -299l57 295l-33 -299l74 290l-51 -294 l92 284l-68 -291l109 279l-86 -287l127 271l-107 -281l146 264l-123 -274l160 254l-140 -267l176 244l-155 -256l190 232l-172 -246l205 217l-186 -234l217 205l-201 -221l231 190l-215 -208l242 176l-227 -195l254 162l-240 -182l262 145l-250 -166l271 129l-260 -149 l278 110l-268 -133l285 94l-277 -116l291 75l-283 -98l293 57l-289 -79l299 36l-295 -61l299 21l-294 -43h299l-299 -25l299 -19l-299 -6l297 -37l-300 15l295 -58l-299 33l291 -73l-295 51l285 -92l-291 67l279 -108l-287 86l270 -127l-280 106l264 -145l-275 123l254 -160 l-266 139l244 -176l-256 156l231 -191l-245 172l217 -205l-234 187l205 -217l-221 200l190 -231l-209 215l177 -242l-195 228l162 -254l-183 239l146 -262l-166 250l129 -270l-149 260l110 -279l-133 269l94 -285l-117 276l76 -290l-98 282l57 -293l-80 289l37 -299l-61 295 l20 -299l-43 295v-299l-24 299l-19 -299l-6 299l-37 -297l15 299l-58 -295l33 299l-74 -291l52 295l-93 -285l68 291l-109 -278l86 286l-127 -270l107 281l-145 -264l122 274l-159 -254l139 266l-176 -243l155 256l-190 -232l172 246l-205 -217l187 233l-218 -205l201 222 l-231 -191l215 209l-242 -176l227 195l-253 -162l239 182l-262 -145l250 165l-270 -129l260 150l-279 -111l268 133l-284 -94l276 117l-291 -76l283 99l-293 -58l289 80l-299 -37l295 62l-299 -21l295 43h-299z" />
<glyph unicode="n" horiz-adv-x="1634" d="M57 780q0 41 52 51l182 35l-164 92q-33 18 -33 50q0 46 48 46q7 0 16 -1l186 -23l-127 137q-18 20 -18 43q0 45 47 45q18 0 30 -6l170 -80l-79 170q-6 12 -7 31q0 47 46 47q23 0 43 -18l137 -127l-23 186q-1 8 -1 15q0 48 46 49q31 0 49 -33l93 -164l34 182q10 51 52 52 q41 0 51 -52l35 -182l92 164q18 33 49 33q46 0 46 -48q0 -7 -1 -16l-23 -186l138 127q20 18 43 18q45 0 45 -47q0 -18 -6 -31l-80 -170l170 80q12 6 30 6q47 0 48 -45q0 -23 -19 -43l-127 -137l186 23q8 1 15 1q48 0 49 -46q0 -31 -33 -50l-164 -92l183 -35q51 -10 51 -51 t-51 -51l-183 -35l164 -92q33 -18 33 -49q0 -46 -48 -46q-7 0 -16 1l-186 22l127 -137q18 -20 19 -43q0 -45 -48 -45q-18 0 -30 6l-170 80l80 -170q6 -12 6 -31q0 -47 -45 -47q-23 0 -43 19l-138 127l23 -187q1 -8 1 -15q0 -48 -46 -48q-31 0 -49 33l-92 164l-35 -183 q-10 -51 -51 -51t-52 51l-34 183l-93 -164q-18 -33 -49 -33q-46 0 -46 48q0 7 1 15l23 187l-137 -127q-20 -18 -43 -19q-45 0 -46 47q0 18 7 31l79 170l-170 -80q-12 -6 -30 -6q-47 0 -47 45q0 23 18 43l127 137l-186 -22q-8 -1 -15 -1q-48 0 -49 46q0 31 33 49l164 92 l-182 35q-51 10 -52 51z" />
<glyph unicode="o" horiz-adv-x="905" d="M55 780l66 -12q49 -10 49 -47q0 -31 -35 -49l-57 -31l65 8q9 1 16 1q47 0 48 -44q0 -20 -21 -43l-45 -49l62 29q18 8 30 8q45 0 46 -45q0 -12 -9 -31l-28 -61l49 45q23 20 43 20q44 0 44 -47q0 -7 -1 -16l-8 -66l30 58q18 34 48 34h2q37 0 47 -49l12 -65l12 65 q8 49 47 49q31 1 49 -34l31 -58l-8 66q-1 9 -1 16q0 47 44 47q20 0 43 -20l49 -45l-29 61q-8 18 -8 31q0 45 45 45q12 0 31 -8l61 -29l-45 49q-20 23 -20 43q0 44 47 44q7 0 16 -1l66 -8l-57 31q-35 18 -35 49q0 37 49 47l66 12l-66 13q-49 8 -49 47q0 31 35 49l57 31 l-66 -9q-9 -1 -16 -1q-47 0 -47 44q0 20 20 43l45 50l-61 -29q-18 -8 -31 -8q-45 0 -45 45q0 12 8 30l29 62l-49 -45q-23 -20 -43 -21q-44 0 -44 48q0 8 1 16l8 65l-31 -57q-18 -35 -49 -35q-39 0 -47 49l-12 66l-12 -66q-10 -49 -47 -49q-31 0 -50 35l-30 57l8 -65 q1 -9 1 -16q0 -47 -44 -48q-20 0 -43 21l-49 45l28 -62q8 -18 9 -30q0 -45 -46 -45q-12 0 -30 8l-62 29l45 -50q20 -23 21 -43q0 -44 -48 -44q-8 0 -16 1l-65 9l57 -31q35 -18 35 -49q0 -39 -49 -47z" />
<glyph unicode="p" horiz-adv-x="1282" d="M20 1001q0 33 43 37l400 37l160 369q12 31 36 31q25 0 37 -31l160 -369l399 -37q43 -4 43 -37q0 -16 -20 -34l-301 -265l88 -391q3 -12 3 -21q0 -32 -34 -32q-16 0 -30 8l-345 205l-344 -205q-14 -8 -30 -8q-34 0 -34 32q0 9 3 21l88 391l-301 265q-20 18 -21 34z M166 965l248 -217q18 -16 14 -39l-74 -324l285 170q6 2 20 2q15 0 21 -2l285 -170l-74 324q-4 23 14 39l248 217l-330 30q-23 2 -32 25l-132 303l-131 -303q-10 -23 -32 -25z" />
<glyph unicode="q" horiz-adv-x="1847" d="M252 416l307 477l-268 493l545 -145l389 412l96 -94l25 -512l405 -201l98 -98l-514 -199l-69 -559l-373 430l-545 -101zM385 506l451 84l288 -354l58 454l426 166l-414 195l-25 456l-313 -333l-442 116l219 -401z" />
<glyph unicode="r" horiz-adv-x="1740" d="M258 420l191 35l-89 -138l537 101l270 -332l2 20l101 -122l71 559l525 205l-166 77l63 25l-411 192l-27 510l-92 -98l-10 201l-387 -412l-543 143l268 -495zM385 506l248 383l-219 401l442 -116l313 333l25 -456l414 -195l-426 -166l-58 -454l-288 354z" />
<glyph unicode="s" horiz-adv-x="1611" d="M182 365l566 104l360 -444l72 571l532 209l-516 244l-31 579l-393 -424l-551 150l273 -506zM287 436l264 410l-232 430l472 -127l331 356l25 -489l438 -207l-450 -178l-62 -486l-307 379zM428 530l365 68l233 -289l47 371l346 135l-336 160l-20 373l-254 -273l-358 94 l178 -327z" />
<glyph unicode="t" horiz-adv-x="1359" d="M14 1219q0 41 56 45l422 24l182 383q18 37 47 37q31 0 47 -41l154 -393l419 -55q51 -6 52 -45q0 -25 -25 -46l-328 -268l78 -416q2 -12 2 -22q0 -43 -41 -43h-2q-18 0 -37 12l-356 230l-373 -205q-18 -10 -35 -10q-40 0 -40 45q0 12 2 24l108 410l-309 291q-23 20 -23 43 z" />
<glyph unicode="u" horiz-adv-x="1359" d="M14 1219q0 41 56 45l422 24l182 383q18 37 47 37q31 0 47 -41l154 -393l419 -55q51 -6 52 -45q0 -25 -25 -46l-328 -268l78 -416q2 -12 2 -22q0 -43 -41 -43h-2q-18 0 -37 12l-356 230l-373 -205q-18 -10 -35 -10q-40 0 -40 45q0 12 2 24l108 410l-309 291q-23 20 -23 43 zM221 1163q0 -16 15 -30l217 -205l-76 -287q-2 -8 -2 -14q0 -33 31 -33q12 0 22 6l260 143l250 -159q16 -10 27 -11q30 0 30 31q0 8 -2 17l-55 290l229 189q18 14 19 30q0 29 -37 33l-293 37l-108 277q-10 29 -33 28q-20 0 -33 -26l-127 -269l-297 -16q-37 -2 -37 -31z M428 1112q-4 -10 8 -22l123 -117l-43 -164q-4 -16 6 -25q8 -8 25 0l147 82l144 -92q14 -8 24 -2q10 8 6 25l-30 166l131 108q12 10 10 21q-4 12 -21 14l-167 22l-62 158q-6 14 -18 17q-12 0 -21 -17l-72 -151l-169 -11q-16 0 -21 -12z" />
<glyph unicode="v" horiz-adv-x="1302" d="M53 1126l533 50l108 489l109 -489l530 -50l-401 -352l117 -520l-355 272l-356 -272l117 520z" />
<glyph unicode="w" horiz-adv-x="1708" d="M55 1122l613 35l262 555l223 -571l608 -78l-475 -389l115 -602l-516 331l-539 -294l156 591zM526 760l248 -29l-33 -248l179 176l174 -180l-29 248l250 25l-211 133l137 209l-237 -82l-78 239l-82 -237l-236 88l133 -213z" />
<glyph unicode="x" horiz-adv-x="1503" d="M63 721q0 76 76 119l232 133l-138 231q-24 39 -24 77q0 56 36 90t89 34q31 0 61 -12l248 -99l94 252q37 96 125 96q92 0 125 -104l78 -256l256 84q25 8 53 8q53 0 88 -33.5t35 -87.5q0 -45 -29 -86l-151 -221l225 -149q70 -47 70 -115q0 -55 -39 -88t-94 -37l-267 -18 l25 -269q1 -9 1 -18q0 -48 -28 -87q-34 -46 -94 -46q-59 0 -106 51l-183 197l-194 -187q-47 -45 -103 -45q-53 0 -85.5 39t-32.5 94q0 12 2 27l39 266l-267 35q-51 6 -87 41t-36 84zM205 727q154 -20 309 -39q80 -18 80 -86q0 -35 -16 -123q-27 -141 -35 -205l186 187 q63 63 100 63q39 0 98.5 -66.5l178.5 -199.5q-30 316 -33 316v-3q0 82 78 97l319 20q-141 88 -235 150q-74 49 -74 88q0 35 53 108q94 131 146 207q-39 -14 -217 -76q-85 -30 -117 -30h-2q-55 0 -80 82q-27 94 -84 284q-33 -92 -98 -276q-31 -80 -80 -80q-35 0 -117 35 l-219 92q45 -72 133 -213q47 -76 47 -111q0 -43 -75 -86zM403 766q55 31 164 92q51 31 51 64q0 25 -116 219q203 -80 223 -80q39 0 61 53q12 29 68 182q31 -94 59 -190q23 -53 62 -53q18 0 223 65q-33 -45 -96 -137q-33 -49 -33 -76q0 -33 50 -65.5t155 -100.5 q-201 -14 -217 -18q-51 -13 -51 -68v-8l16 -201l-141 154q-16 18 -43 18q-51 0 -131 -77l-70 -82q29 201 29 211q0 53 -54 67q-6 2 -209 31z" />
<glyph unicode="y" horiz-adv-x="1591" d="M41 727q0 6 8 10l434 240l-247 430q-4 8 0 14q4 4 12 2l459 -190l182 461q4 10 10 8q8 0 10 -8l138 -477l475 145q8 2 12 -2q4 -6 -2 -14l-287 -404l410 -280q8 -6 6 -13q-2 -6 -10 -6l-496 -29l35 -495q2 -8 -4 -13q-6 -2 -12 5l-332 370l-365 -336q-6 -8 -12 -4t-4 13 l82 489l-492 76q-8 0 -10 8zM84 733l473 -71q10 -2 8 -13l-80 -469l351 324q8 6 14 0l317 -357l-34 476q0 10 10 12l475 27l-393 268q-8 6 -2 14l276 389l-457 -139q-10 -2 -12 6l-133 459l-174 -442q-4 -10 -14 -7l-441 183l238 -414q6 -10 -4 -14zM205 762q-2 4 4 8 l348 193l-199 344q-4 6 0 10t11 2l366 -152l148 369q2 6 8 6q4 0 6 -6l111 -383l378 117q8 2 11 -2q4 -4 0 -11l-230 -323l328 -225q6 -4 4 -9q-2 -6 -8 -6l-397 -22l28 -396q0 -8 -4 -10t-10 4l-264 295l-291 -268q-6 -6 -10 -4q-6 4 -4 10l65 391l-391 62q-8 0 -8 6z M238 768l376 -57q10 -2 9 -11l-64 -376l281 260q4 6 10 0l254 -285l-27 381q0 8 8 8l381 21l-315 217q-4 2 -4 6q0 2 2 4l221 311l-366 -110q-6 -4 -11 4l-104 366l-141 -354q-2 -8 -11 -4l-352 145l190 -331q4 -6 -4 -11zM371 803l260 145l-150 258q2 6 8 8l277 -112 l108 276q6 18 13 0l82 -286l284 86q6 0 7 -9l-173 -243l246 -168q14 -10 -2 -10l-297 -19l21 -297q-2 -4 -11 -4l-198 221l-219 -200q-6 -2 -11 4l50 295l-293 45q-16 2 -2 10zM391 801l283 -43q6 0 6 -6l-47 -283l209 195q4 4 8 0l192 -213l-22 284q0 6 6 6l287 17 l-238 162q-2 2 -2 4t2 4l164 233l-272 -84q-6 -2 -9 4l-79 275l-105 -264q-2 -6 -8 -5l-264 109l143 -248q2 -6 -4 -8zM530 838l175 94l-99 174q0 2 4 4l185 -76l71 187q4 10 8 -2l56 -191l190 59q2 -2 4 -6l-114 -163l164 -111q10 -8 -3 -8l-198 -11l14 -198q-2 -4 -6 -4 l-133 149l-146 -135q-4 -2 -8 4l35 195l-197 30q-14 2 -2 9zM545 836l188 -29q4 -2 4 -4l-32 -189l141 129q2 2 6 0l127 -143l-14 191q0 4 4 4l190 12l-158 106q-4 2 -2 7l111 155l-182 -55q-4 -2 -4 2l-54 184l-69 -178q-2 -4 -6 -2l-177 72l95 -164q2 -4 0 -6zM692 866 q-8 0 0 4l86 48l-49 86q0 2 2 4l92 -39l37 92q2 6 4 0l27 -94l94 28q2 -2 2 -4l-57 -80l82 -57q4 -2 0 -4l-99 -4l7 -101q0 -2 -5 0l-65 74l-74 -67q-2 0 -2 2l17 98zM698 868l95 -14q2 0 2 -2l-17 -94l70 65h4l63 -71l-8 96l2 2l97 4l-80 55v2l55 78l-90 -28q-2 0 -4 2 l-27 92l-35 -90h-2l-88 36l47 -83q2 -2 0 -3z" />
<glyph unicode="z" horiz-adv-x="1679" d="M74 739l268 301l-115 385l402 -20l231 330l234 -328l403 27l-111 -390l271 -296l-373 -156l-63 -397l-355 194l-350 -199l-70 398z" />
<glyph unicode="{" />
<glyph unicode="|" />
<glyph unicode="}" />
<glyph unicode="~" />
<glyph unicode="&#xa0;" />
<glyph unicode="&#xa1;" />
<glyph unicode="&#xa2;" />
<glyph unicode="&#xa3;" />
<glyph unicode="&#xa4;" />
<glyph unicode="&#xa5;" />
<glyph unicode="&#xa6;" />
<glyph unicode="&#xa7;" />
<glyph unicode="&#xa8;" />
<glyph unicode="&#xa9;" />
<glyph unicode="&#xaa;" />
<glyph unicode="&#xab;" />
<glyph unicode="&#xac;" />
<glyph unicode="&#xad;" />
<glyph unicode="&#xae;" />
<glyph unicode="&#xaf;" />
<glyph unicode="&#xb0;" />
<glyph unicode="&#xb1;" />
<glyph unicode="&#xb2;" />
<glyph unicode="&#xb3;" />
<glyph unicode="&#xb4;" />
<glyph unicode="&#xb5;" />
<glyph unicode="&#xb6;" />
<glyph unicode="&#xb7;" />
<glyph unicode="&#xb8;" />
<glyph unicode="&#xb9;" />
<glyph unicode="&#xba;" />
<glyph unicode="&#xbb;" />
<glyph unicode="&#xbc;" />
<glyph unicode="&#xbd;" />
<glyph unicode="&#xbe;" />
<glyph unicode="&#xbf;" />
<glyph unicode="&#xc0;" />
<glyph unicode="&#xc1;" />
<glyph unicode="&#xc2;" />
<glyph unicode="&#xc3;" />
<glyph unicode="&#xc4;" />
<glyph unicode="&#xc5;" />
<glyph unicode="&#xc6;" />
<glyph unicode="&#xc7;" />
<glyph unicode="&#xc8;" />
<glyph unicode="&#xc9;" />
<glyph unicode="&#xca;" />
<glyph unicode="&#xcb;" />
<glyph unicode="&#xcc;" />
<glyph unicode="&#xcd;" />
<glyph unicode="&#xce;" />
<glyph unicode="&#xcf;" />
<glyph unicode="&#xd0;" />
<glyph unicode="&#xd1;" />
<glyph unicode="&#xd2;" />
<glyph unicode="&#xd3;" />
<glyph unicode="&#xd4;" />
<glyph unicode="&#xd5;" />
<glyph unicode="&#xd6;" />
<glyph unicode="&#xd7;" />
<glyph unicode="&#xd8;" />
<glyph unicode="&#xd9;" />
<glyph unicode="&#xda;" />
<glyph unicode="&#xdb;" />
<glyph unicode="&#xdc;" />
<glyph unicode="&#xdd;" />
<glyph unicode="&#xde;" />
<glyph unicode="&#xdf;" />
<glyph unicode="&#xe0;" />
<glyph unicode="&#xe1;" />
<glyph unicode="&#xe2;" />
<glyph unicode="&#xe3;" />
<glyph unicode="&#xe4;" />
<glyph unicode="&#xe5;" />
<glyph unicode="&#xe6;" />
<glyph unicode="&#xe7;" />
<glyph unicode="&#xe8;" />
<glyph unicode="&#xe9;" />
<glyph unicode="&#xea;" />
<glyph unicode="&#xeb;" />
<glyph unicode="&#xec;" />
<glyph unicode="&#xed;" />
<glyph unicode="&#xee;" />
<glyph unicode="&#xef;" />
<glyph unicode="&#xf0;" />
<glyph unicode="&#xf1;" />
<glyph unicode="&#xf2;" />
<glyph unicode="&#xf3;" />
<glyph unicode="&#xf4;" />
<glyph unicode="&#xf5;" />
<glyph unicode="&#xf6;" />
<glyph unicode="&#xf7;" />
<glyph unicode="&#xf8;" />
<glyph unicode="&#xf9;" />
<glyph unicode="&#xfa;" />
<glyph unicode="&#xfb;" />
<glyph unicode="&#xfc;" />
<glyph unicode="&#xfd;" />
<glyph unicode="&#xfe;" />
<glyph unicode="&#xff;" />
<glyph unicode="&#x152;" />
<glyph unicode="&#x153;" />
<glyph unicode="&#x178;" />
<glyph unicode="&#x2c6;" />
<glyph unicode="&#x2dc;" />
<glyph unicode="&#x2000;" horiz-adv-x="894" />
<glyph unicode="&#x2001;" horiz-adv-x="1788" />
<glyph unicode="&#x2002;" horiz-adv-x="894" />
<glyph unicode="&#x2003;" horiz-adv-x="1788" />
<glyph unicode="&#x2004;" horiz-adv-x="596" />
<glyph unicode="&#x2005;" horiz-adv-x="447" />
<glyph unicode="&#x2006;" horiz-adv-x="298" />
<glyph unicode="&#x2007;" horiz-adv-x="298" />
<glyph unicode="&#x2008;" horiz-adv-x="223" />
<glyph unicode="&#x2009;" horiz-adv-x="357" />
<glyph unicode="&#x200a;" horiz-adv-x="99" />
<glyph unicode="&#x2010;" />
<glyph unicode="&#x2011;" />
<glyph unicode="&#x2012;" />
<glyph unicode="&#x2013;" />
<glyph unicode="&#x2014;" />
<glyph unicode="&#x2018;" />
<glyph unicode="&#x2019;" />
<glyph unicode="&#x201a;" />
<glyph unicode="&#x201c;" />
<glyph unicode="&#x201d;" />
<glyph unicode="&#x201e;" />
<glyph unicode="&#x2022;" />
<glyph unicode="&#x2026;" />
<glyph unicode="&#x202f;" horiz-adv-x="357" />
<glyph unicode="&#x2039;" />
<glyph unicode="&#x203a;" />
<glyph unicode="&#x205f;" horiz-adv-x="447" />
<glyph unicode="&#x2122;" />
<glyph unicode="&#x25fc;" horiz-adv-x="1638" d="M0 0v1638h1638v-1638h-1638z" />
</font>
</defs>
</svg>
